<svg width="156" height="40" viewBox="0 0 156 40" fill="none" xmlns="http://www.w3.org/2000/svg">
<path fill-rule="evenodd" clip-rule="evenodd" d="M36.9822 24.4145H40.5441C46.0106 24.4145 48.2246 21.2324 48.1804 18.1355C48.1804 14.6211 45.6659 11.8181 40.5441 11.8181H32.7266V31.8181H36.9822V24.4145ZM43.844 18.1226C43.844 19.9757 42.7613 21.1045 40.3705 21.1045H36.9855V15.1407H40.3705C42.7613 15.1407 43.844 16.2696 43.844 18.1226Z" fill="#110A57"/>
<path d="M50.9062 11.8181H55.4517V31.8181H50.9062V11.8181Z" fill="#110A57"/>
<path fill-rule="evenodd" clip-rule="evenodd" d="M71.218 17.2159C70.2344 15.7951 68.3979 14.5454 65.7476 14.5454C61.5045 14.5454 58.1797 17.9263 58.1797 23.1182C58.1797 28.3101 61.5132 31.8181 65.7041 31.8181C68.3544 31.8181 70.2344 30.5684 71.218 29.1038V31.5594H75.4524V14.848H71.218V17.2159ZM62.4618 23.162C62.4618 19.974 64.5507 18.2946 66.8137 18.2946C69.1246 18.2946 71.2178 20.088 71.2178 23.2453C71.2178 26.4025 69.1246 28.1565 66.8137 28.1565C64.6029 28.1565 62.4618 26.3499 62.4618 23.162Z" fill="#110A57"/>
<path d="M92.033 22.3979C92.033 19.6803 90.5294 18.1898 88.2291 18.1898C85.9287 18.1898 84.3351 19.6803 84.3351 22.3979V31.769H80V14.8117H84.3351V16.9135C85.5883 15.3629 87.5042 14.4869 89.5075 14.5485C93.487 14.5485 96.3636 17.1322 96.3636 21.8267V31.8181H92.033V22.3979Z" fill="#110A57"/>
<path fill-rule="evenodd" clip-rule="evenodd" d="M99.0938 23.1839C99.0938 28.4506 102.765 31.8181 107.6 31.8181C112.498 31.8181 116.366 28.455 116.366 23.1839C116.366 17.9129 112.573 14.5454 107.732 14.5454C102.892 14.5454 99.0938 17.9173 99.0938 23.1839ZM111.992 23.1839C111.992 26.5074 109.842 28.1472 107.596 28.1472C105.305 28.1472 103.397 26.5558 103.397 23.1839C103.397 19.812 105.428 18.2162 107.675 18.2162C109.921 18.2162 111.992 19.8604 111.992 23.1839Z" fill="#110A57"/>
<path fill-rule="evenodd" clip-rule="evenodd" d="M131.222 17.2381C130.239 15.7613 128.363 14.5454 125.752 14.5454C121.561 14.5454 118.18 17.9544 118.18 23.1894C118.18 28.4244 121.513 31.9616 125.748 31.9616C127.913 32.0234 129.966 30.9814 131.218 29.1849V31.7892C131.218 34.9373 129.425 36.2637 127.114 36.2637C125.021 36.2637 123.489 35.2645 123.054 33.7435H118.906C119.289 37.6079 122.584 39.9999 127.245 39.9999C132.715 39.9999 135.452 36.392 135.452 31.8334V14.8505H131.222V17.2381ZM122.513 23.2337C122.513 20.0193 124.602 18.3259 126.865 18.3259C129.132 18.3259 131.269 20.1343 131.269 23.3177C131.269 26.5012 129.176 28.2698 126.865 28.2698C124.65 28.2698 122.513 26.4481 122.513 23.2337Z" fill="#110A57"/>
<path d="M151.126 14.5454H155.452L145.464 39.0908H141.133L144.629 30.7763L138.18 14.5454H142.756L146.922 25.3018L151.126 14.5454Z" fill="#110A57"/>
<path d="M9.09088 27.2727L2.39794 30.2562C0.93729 30.9057 0.000295569 32.3242 0 33.8864V39.9999L4.8402 37.8442C7.43033 36.6907 9.09114 34.174 9.09088 31.403V27.2727Z" fill="#1A27E3"/>
<path d="M15.5339 7.27271C16.6428 7.92306 17.3235 9.13814 17.3138 10.4502C17.3131 11.8083 16.5606 13.0478 15.3737 13.6454L4.27865 18.8432C1.65373 20.2067 -0.000911271 22.9723 3.76521e-07 25.9947V29.9999L15.8501 22.5414C18.9554 21.3132 20.9781 18.216 20.9072 14.7974C20.8364 11.3788 18.6874 8.37289 15.5339 7.28161V7.27271Z" fill="url(#paint0_linear)"/>
<path d="M17.2725 10.1236C17.285 8.87024 16.6263 7.70543 15.5444 7.068L1.3984e-05 0V3.69777C-0.00585043 6.84848 1.83322 9.7124 4.7048 11.0243L12.4424 14.5454L15.3413 13.2525C16.535 12.6671 17.2859 11.4504 17.2725 10.1236Z" fill="url(#paint1_linear)"/>
<defs>
<linearGradient id="paint0_linear" x1="3.76521e-07" y1="29.9973" x2="20.9082" y2="29.9973" gradientUnits="userSpaceOnUse">
<stop stop-color="#2073FD"/>
<stop offset="0.43" stop-color="#23B8E1"/>
<stop offset="0.93" stop-color="#63CDD9"/>
</linearGradient>
<linearGradient id="paint1_linear" x1="-6.58594" y1="12.4232" x2="12.05" y2="26.0308" gradientUnits="userSpaceOnUse">
<stop stop-color="#F8AE2A"/>
<stop offset="0.53" stop-color="#FD6464"/>
<stop offset="0.89" stop-color="#FD0474"/>
</linearGradient>
</defs>
</svg>
